<?xml version="1.0" standalone="no"?>
<!DOCTYPE svg PUBLIC "-//W3C//DTD SVG 20010904//EN"
 "http://www.w3.org/TR/2001/REC-SVG-20010904/DTD/svg10.dtd">
<svg version="1.0" xmlns="http://www.w3.org/2000/svg"
 width="399.000000pt" height="399.000000pt" viewBox="0 0 399.000000 399.000000"
 preserveAspectRatio="xMidYMid meet">

<g transform="translate(0.000000,399.000000) scale(0.100000,-0.100000)"
fill="#000000" stroke="none">
<path d="M0 1995 l0 -1995 1995 0 1995 0 0 1995 0 1995 -1995 0 -1995 0 0
-1995z m2193 1590 c366 -48 670 -198 932 -460 133 -133 224 -259 304 -420 174
-351 215 -748 116 -1128 -70 -272 -211 -513 -420 -722 -133 -133 -259 -224
-420 -304 -351 -174 -748 -215 -1128 -116 -272 70 -513 211 -722 420 -133 133
-224 259 -304 420 -174 351 -215 748 -116 1128 70 272 211 513 420 722 270
270 587 420 990 468 77 10 245 6 348 -8z"/>
<path d="M1795 3489 c-245 -33 -505 -137 -700 -281 -108 -79 -281 -260 -353
-368 -321 -481 -348 -1085 -72 -1583 73 -132 138 -217 264 -342 474 -470 1203
-570 1789 -245 132 73 217 138 342 264 470 474 570 1203 245 1789 -73 132
-138 217 -264 342 -209 207 -462 344 -754 405 -113 24 -384 35 -497 19z m979
-1129 c-2 -193 -41 -324 -141 -479 -213 -329 -696 -553 -1290 -597 l-93 -7 0
50 0 50 98 7 c133 9 275 32 412 66 560 140 886 445 917 858 l6 82 -717 0 -716
0 0 50 0 50 763 -2 762 -3 -1 -125z"/>
</g>
</svg>
